<?xml version="1.0" encoding="UTF-8" standalone="no"?>
<!-- Generator: Adobe Illustrator 16.0.0, SVG Export Plug-In . SVG Version: 6.00 Build 0)  -->

<svg
   xmlns:dc="http://purl.org/dc/elements/1.1/"
   xmlns:cc="http://creativecommons.org/ns#"
   xmlns:rdf="http://www.w3.org/1999/02/22-rdf-syntax-ns#"
   xmlns:svg="http://www.w3.org/2000/svg"
   xmlns="http://www.w3.org/2000/svg"
   xmlns:sodipodi="http://sodipodi.sourceforge.net/DTD/sodipodi-0.dtd"
   xmlns:inkscape="http://www.inkscape.org/namespaces/inkscape"
   version="1.1"
   id="Capa_1"
   x="0px"
   y="0px"
   width="487.381px"
   height="487.381px"
   viewBox="0 0 487.381 487.381"
   style="enable-background:new 0 0 487.381 487.381;"
   xml:space="preserve"
   sodipodi:docname="tip-print.svg"
   inkscape:version="0.92.2 5c3e80d, 2017-08-06"><metadata
     id="metadata209"><rdf:RDF><cc:Work
         rdf:about=""><dc:format>image/svg+xml</dc:format><dc:type
           rdf:resource="http://purl.org/dc/dcmitype/StillImage" /><dc:title></dc:title></cc:Work></rdf:RDF></metadata><defs
     id="defs207" /><sodipodi:namedview
     pagecolor="#ffffff"
     bordercolor="#666666"
     borderopacity="1"
     objecttolerance="10"
     gridtolerance="10"
     guidetolerance="10"
     inkscape:pageopacity="0"
     inkscape:pageshadow="2"
     inkscape:window-width="3840"
     inkscape:window-height="1576"
     id="namedview205"
     showgrid="false"
     showguides="true"
     inkscape:guide-bbox="true"
     inkscape:zoom="2.79658"
     inkscape:cx="200.24458"
     inkscape:cy="243.69051"
     inkscape:window-x="1680"
     inkscape:window-y="0"
     inkscape:window-maximized="1"
     inkscape:current-layer="Capa_1"><sodipodi:guide
       position="97.158201,102.46499"
       orientation="1,0"
       id="guide277"
       inkscape:locked="false" /><sodipodi:guide
       position="390.22851,102.46499"
       orientation="1,0"
       id="guide279"
       inkscape:locked="false" /><sodipodi:guide
       position="415.41405,166.91617"
       orientation="0,1"
       id="guide281"
       inkscape:locked="false" /></sodipodi:namedview><path
     style="fill:#000000"
     d="m 108.80469,0 c -6.436,0 -11.646487,5.2154856 -11.646487,11.646484 V 100.91797 H 87.28125 c -38.523,0 -69.871094,31.34214 -69.871094,69.86914 v 144.25977 c 0,38.528 31.348094,69.86914 69.871094,69.86914 h 9.876953 v 90.81836 c 0,6.432 5.210487,11.64648 11.646487,11.64648 h 269.77734 c 6.432,0 11.64649,-5.21552 11.64649,-11.64648 v -90.81836 h 9.87109 c 38.523,0 69.87109,-31.34118 69.87109,-69.86914 V 170.78906 c 10e-4,-38.528 -31.34809,-69.87109 -69.87109,-69.87109 h -9.87109 V 11.646484 C 390.22852,5.2154856 385.01403,0 378.58203,0 Z m 11.64453,23.291016 H 366.9375 V 100.91797 H 120.44922 Z M 378.58203,170.64648 c 8.775,0 15.89253,7.11858 15.89453,15.89258 0,8.775 -7.11953,15.89258 -15.89453,15.89258 -8.774,0 -15.89258,-7.11858 -15.89258,-15.89258 0,-8.774 7.12158,-15.89258 15.89258,-15.89258 z M 75.421875,297.17383 h 33.382815 269.77734 36.83203 c 6.436,0 11.64649,5.21453 11.64649,11.64453 0,6.432 -5.21049,11.64648 -11.64649,11.64648 l -25.18554,0 0,-11.08497 H 366.9375 l 0,154.71193 H 120.44922 l 0,-154.71193 H 97.158203 v 11.08497 l -21.736328,0 c -6.431,0 -11.646484,-5.21348 -11.646484,-11.64648 0,-6.43 5.215484,-11.64453 11.646484,-11.64453 z m 72.195315,40.26953 c -6.431,0 -11.64453,5.21453 -11.64453,11.64453 0,6.433 5.21353,11.64647 11.64453,11.64649 h 192.14648 c 6.432,0 11.64649,-5.21349 11.64649,-11.64649 0,-6.43 -5.21549,-11.64453 -11.64649,-11.64453 z m 0,43.19141 c -6.431,0 -11.64453,5.21253 -11.64453,11.64453 0,6.432 5.21353,11.64648 11.64453,11.64648 h 192.14648 c 6.432,0 11.64649,-5.21748 11.64649,-11.64648 0,-6.432 -5.21549,-11.64453 -11.64649,-11.64453 z"
     id="path226"
     inkscape:connector-curvature="0"
     sodipodi:nodetypes="sscsssscsssscsscscssscccccscssssccsssccccccccssssscsssssssssss" /><g
     id="g174" /><g
     id="g176" /><g
     id="g178" /><g
     id="g180" /><g
     id="g182" /><g
     id="g184" /><g
     id="g186" /><g
     id="g188" /><g
     id="g190" /><g
     id="g192" /><g
     id="g194" /><g
     id="g196" /><g
     id="g198" /><g
     id="g200" /><g
     id="g202" /></svg>