<?xml version="1.0" encoding="UTF-8" standalone="no"?>
<!-- Generator: Adobe Illustrator 16.0.0, SVG Export Plug-In . SVG Version: 6.00 Build 0)  -->

<svg
   xmlns:dc="http://purl.org/dc/elements/1.1/"
   xmlns:cc="http://creativecommons.org/ns#"
   xmlns:rdf="http://www.w3.org/1999/02/22-rdf-syntax-ns#"
   xmlns:svg="http://www.w3.org/2000/svg"
   xmlns="http://www.w3.org/2000/svg"
   xmlns:sodipodi="http://sodipodi.sourceforge.net/DTD/sodipodi-0.dtd"
   xmlns:inkscape="http://www.inkscape.org/namespaces/inkscape"
   version="1.1"
   id="Capa_1"
   x="0px"
   y="0px"
   width="487.381px"
   height="487.381px"
   viewBox="0 0 487.381 487.381"
   style="enable-background:new 0 0 487.381 487.381;"
   xml:space="preserve"
   sodipodi:docname="tip-print-yes.svg"
   inkscape:version="0.92.2 5c3e80d, 2017-08-06"><metadata
     id="metadata209"><rdf:RDF><cc:Work
         rdf:about=""><dc:format>image/svg+xml</dc:format><dc:type
           rdf:resource="http://purl.org/dc/dcmitype/StillImage" /><dc:title></dc:title></cc:Work></rdf:RDF></metadata><defs
     id="defs207" /><sodipodi:namedview
     pagecolor="#ffffff"
     bordercolor="#666666"
     borderopacity="1"
     objecttolerance="10"
     gridtolerance="10"
     guidetolerance="10"
     inkscape:pageopacity="0"
     inkscape:pageshadow="2"
     inkscape:window-width="3840"
     inkscape:window-height="1576"
     id="namedview205"
     showgrid="false"
     showguides="true"
     inkscape:guide-bbox="true"
     inkscape:zoom="1"
     inkscape:cx="-369.7493"
     inkscape:cy="211.16086"
     inkscape:window-x="1680"
     inkscape:window-y="0"
     inkscape:window-maximized="1"
     inkscape:current-layer="Capa_1"
     inkscape:measure-start="120.449,178.001"
     inkscape:measure-end="97.1582,178.001"><sodipodi:guide
       position="97.158201,102.46499"
       orientation="1,0"
       id="guide277"
       inkscape:locked="false" /><sodipodi:guide
       position="390.22851,102.46499"
       orientation="1,0"
       id="guide279"
       inkscape:locked="false" /><sodipodi:guide
       position="415.41405,166.91617"
       orientation="0,1"
       id="guide281"
       inkscape:locked="false" /></sodipodi:namedview><path
     style="fill:#000000"
     d="M 108.80469 0 C 102.36869 0 97.158203 5.215486 97.158203 11.646484 L 97.158203 100.91797 L 87.28125 100.91797 C 48.75825 100.91797 17.410156 132.26011 17.410156 170.78711 L 17.410156 315.04688 C 17.410156 353.57488 48.75825 384.91602 87.28125 384.91602 L 97.158203 384.91602 L 97.158203 475.73438 C 97.158203 482.16638 102.36869 487.38086 108.80469 487.38086 L 378.58203 487.38086 C 385.01403 487.38086 390.22852 482.16533 390.22852 475.73438 L 390.22852 384.91602 L 400.09961 384.91602 C 438.62261 384.91602 469.9707 353.57483 469.9707 315.04688 L 469.9707 170.78906 C 469.9717 132.26106 438.62261 100.91797 400.09961 100.91797 L 390.22852 100.91797 L 390.22852 11.646484 C 390.22852 5.215486 385.01403 -1.1842379e-15 378.58203 0 L 108.80469 0 z M 120.44922 23.291016 L 366.9375 23.291016 L 366.9375 97.490234 A 23.29233 23.29233 0 0 1 370.64844 97.109375 A 23.29233 23.29233 0 0 1 387.45898 103.92773 L 420.39648 136.86719 A 23.29233 23.29233 0 0 1 420.39453 169.80469 L 293.02539 297.17383 L 378.58203 297.17383 L 415.41406 297.17383 C 421.85006 297.17383 427.06055 302.38836 427.06055 308.81836 C 427.06055 315.25036 421.85006 320.46484 415.41406 320.46484 L 390.22852 320.46484 L 390.22852 309.37891 L 366.9375 309.37891 L 366.9375 464.0918 L 120.44922 464.0918 L 120.44922 330.08984 L 99.736328 309.37891 L 97.158203 309.37891 L 97.158203 320.46484 L 75.421875 320.46484 C 68.990875 320.46484 63.775391 315.25136 63.775391 308.81836 C 63.775391 302.38836 68.990875 297.17383 75.421875 297.17383 L 87.53125 297.17383 L 66.986328 276.62891 A 23.29233 23.29233 0 0 1 66.986328 243.69141 L 99.925781 210.75195 A 23.29233 23.29233 0 0 1 132.86133 210.75195 L 190.2793 268.16797 L 354.52148 103.92773 A 23.29233 23.29233 0 0 1 358.27344 100.91797 L 120.44922 100.91797 L 120.44922 23.291016 z M 370.98828 153.33398 L 227.14648 297.17383 L 227.15234 297.17383 L 370.99023 153.33594 L 370.98828 153.33398 z M 116.39453 260.15625 L 116.39062 260.16016 L 153.40625 297.17383 L 153.41016 297.17383 L 116.39453 260.15625 z M 252.75586 337.44336 L 239.68555 350.51367 L 229.46484 360.73438 L 339.76367 360.73438 C 346.19567 360.73438 351.41016 355.52089 351.41016 349.08789 C 351.41016 342.65789 346.19467 337.44336 339.76367 337.44336 L 252.75586 337.44336 z M 136.39062 346.03125 C 136.12545 347.00677 135.97266 348.02849 135.97266 349.08789 C 135.97266 355.52089 141.18619 360.73435 147.61719 360.73438 L 151.0918 360.73438 L 140.87305 350.51367 L 136.39062 346.03125 z M 147.61719 380.63477 C 141.18619 380.63477 135.97266 385.8473 135.97266 392.2793 C 135.97266 398.7113 141.18619 403.92578 147.61719 403.92578 L 339.76367 403.92578 C 346.19567 403.92578 351.41016 398.7083 351.41016 392.2793 C 351.41016 385.8473 346.19467 380.63477 339.76367 380.63477 L 209.56445 380.63477 L 206.74609 383.45312 A 23.29233 23.29233 0 0 1 173.80859 383.45312 L 170.99023 380.63477 L 147.61719 380.63477 z "
     id="path226" /><path
     style="fill:#88aa00;stroke:none;stroke-width:2"
     d="M 370.98933,120.39656 190.27839,301.10555 116.39363,227.22078 83.45418,260.16023 157.34089,334.045 190.27839,366.98445 223.21785,334.045 403.92683,153.33602 Z"
     id="rect4172"
     inkscape:connector-curvature="0" /><g
     id="g174" /><g
     id="g176" /><g
     id="g178" /><g
     id="g180" /><g
     id="g182" /><g
     id="g184" /><g
     id="g186" /><g
     id="g188" /><g
     id="g190" /><g
     id="g192" /><g
     id="g194" /><g
     id="g196" /><g
     id="g198" /><g
     id="g200" /><g
     id="g202" /></svg>