<?xml version="1.0" encoding="UTF-8" standalone="no"?>
<!-- Generator: Adobe Illustrator 16.0.0, SVG Export Plug-In . SVG Version: 6.00 Build 0)  -->

<svg
   xmlns:dc="http://purl.org/dc/elements/1.1/"
   xmlns:cc="http://creativecommons.org/ns#"
   xmlns:rdf="http://www.w3.org/1999/02/22-rdf-syntax-ns#"
   xmlns:svg="http://www.w3.org/2000/svg"
   xmlns="http://www.w3.org/2000/svg"
   xmlns:sodipodi="http://sodipodi.sourceforge.net/DTD/sodipodi-0.dtd"
   xmlns:inkscape="http://www.inkscape.org/namespaces/inkscape"
   version="1.1"
   id="Capa_1"
   x="0px"
   y="0px"
   width="487.381px"
   height="487.381px"
   viewBox="0 0 487.381 487.381"
   style="enable-background:new 0 0 487.381 487.381;"
   xml:space="preserve"
   sodipodi:docname="tip-print-no.svg"
   inkscape:version="0.92.2 5c3e80d, 2017-08-06"><metadata
     id="metadata209"><rdf:RDF><cc:Work
         rdf:about=""><dc:format>image/svg+xml</dc:format><dc:type
           rdf:resource="http://purl.org/dc/dcmitype/StillImage" /><dc:title></dc:title></cc:Work></rdf:RDF></metadata><defs
     id="defs207" /><sodipodi:namedview
     pagecolor="#ffffff"
     bordercolor="#666666"
     borderopacity="1"
     objecttolerance="10"
     gridtolerance="10"
     guidetolerance="10"
     inkscape:pageopacity="0"
     inkscape:pageshadow="2"
     inkscape:window-width="3840"
     inkscape:window-height="1576"
     id="namedview205"
     showgrid="false"
     showguides="true"
     inkscape:guide-bbox="true"
     inkscape:zoom="1"
     inkscape:cx="484.07984"
     inkscape:cy="356.83794"
     inkscape:window-x="1680"
     inkscape:window-y="0"
     inkscape:window-maximized="1"
     inkscape:current-layer="Capa_1"><sodipodi:guide
       position="97.158201,102.46499"
       orientation="1,0"
       id="guide277"
       inkscape:locked="false" /><sodipodi:guide
       position="390.22851,102.46499"
       orientation="1,0"
       id="guide279"
       inkscape:locked="false" /><sodipodi:guide
       position="415.41405,166.91617"
       orientation="0,1"
       id="guide281"
       inkscape:locked="false" /></sodipodi:namedview><path
     style="fill:#000000"
     d="M 108.80469 0 C 102.36869 0 97.158203 5.215486 97.158203 11.646484 L 97.158203 100.91797 L 87.28125 100.91797 C 48.75825 100.91797 17.410156 132.26011 17.410156 170.78711 L 17.410156 315.04688 C 17.410156 343.52617 34.547429 368.06162 59.041016 378.93164 L 120.44922 317.52344 L 120.44922 309.38086 L 97.158203 309.38086 L 97.158203 320.46484 L 75.421875 320.46484 C 68.990875 320.46484 63.775391 315.25136 63.775391 308.81836 C 63.775391 302.38836 68.990875 297.17383 75.421875 297.17383 L 108.80469 297.17383 L 140.79883 297.17383 L 337.05469 100.91797 L 120.44922 100.91797 L 120.44922 23.291016 L 366.9375 23.291016 L 366.9375 71.035156 L 390.22852 47.744141 L 390.22852 11.646484 C 390.22852 5.215486 385.01403 -1.1842379e-15 378.58203 0 L 108.80469 0 z M 429.4043 107.38477 L 239.61523 297.17383 L 378.58203 297.17383 L 415.41406 297.17383 C 421.85006 297.17383 427.06055 302.38836 427.06055 308.81836 C 427.06055 315.25036 421.85006 320.46484 415.41406 320.46484 L 390.22852 320.46484 L 390.22852 309.38086 L 366.9375 309.38086 L 366.9375 464.0918 L 120.44922 464.0918 L 120.44922 416.33984 L 97.158203 439.63086 L 97.158203 475.73438 C 97.158203 482.16638 102.36869 487.38086 108.80469 487.38086 L 378.58203 487.38086 C 385.01403 487.38086 390.22852 482.16534 390.22852 475.73438 L 390.22852 384.91602 L 400.09961 384.91602 C 438.62261 384.91602 469.9707 353.57483 469.9707 315.04688 L 469.9707 170.78906 C 469.97143 142.72392 453.32879 118.4874 429.4043 107.38477 z M 378.58203 170.64648 C 387.35703 170.64648 394.47456 177.76506 394.47656 186.53906 C 394.47656 195.31406 387.35703 202.43164 378.58203 202.43164 C 369.80803 202.43164 362.68945 195.31306 362.68945 186.53906 C 362.68945 177.76506 369.81103 170.64648 378.58203 170.64648 z M 199.3457 337.44336 L 176.05469 360.73438 L 339.76367 360.73438 C 346.19567 360.73438 351.41016 355.52089 351.41016 349.08789 C 351.41016 342.65789 346.19467 337.44336 339.76367 337.44336 L 199.3457 337.44336 z M 156.1543 380.63477 L 137.97656 398.8125 C 140.07109 401.89811 143.60735 403.92578 147.61719 403.92578 L 339.76367 403.92578 C 346.19567 403.92578 351.41016 398.7083 351.41016 392.2793 C 351.41016 385.8473 346.19467 380.63477 339.76367 380.63477 L 156.1543 380.63477 z "
     id="path226" /><g
     id="g174" /><g
     id="g176" /><g
     id="g178" /><g
     id="g180" /><g
     id="g182" /><g
     id="g184" /><g
     id="g186" /><g
     id="g188" /><g
     id="g190" /><g
     id="g192" /><g
     id="g194" /><g
     id="g196" /><g
     id="g198" /><g
     id="g200" /><g
     id="g202" /><path
     style="fill:#aa0000;stroke:none;stroke-width:2.82842708"
     d="M 443.59757,10.844971 476.53605,43.783431 43.783455,476.53604 10.844961,443.59758 Z"
     id="rect305"
     inkscape:connector-curvature="0" /></svg>